# xmcd
#
# Track frame offsets: 
#        150
#        13325
#        26723
#        43392
#        66017
#        83045
#        101184
#        121552
#        137723
#        157432
#        177256
#        196819
#        224909
#
# Disc length: 3229 seconds
#
# Revision: 0
# Processed by: cddbd v1.5.2PL0 Copyright (c) Steve Scherf et al.
# Submitted via: ExactAudioCopy v1.0b3
#
DISCID=c40c9b0d
DTITLE=Big Daddy Wilson - Thumb A Ride
DYEAR=2011
DGENRE=Blues
TTITLE0=Thumb A Ride
TTITLE1=Baby Don't Like
TTITLE2=This Is How I Live
TTITLE3=Anna Mae
TTITLE4=Sweet Tooth
TTITLE5=It Don't Get No Better
TTITLE6=Who's Dat Knocking
TTITLE7=Four Daughters And A Strong Loving Wife
TTITLE8=Cold Is The Wind
TTITLE9=Drop Down Here
TTITLE10=Way Back Yonder
TTITLE11=Brother Blood
TTITLE12=If You Were Mine
EXTD=
EXTT0=
EXTT1=
EXTT2=
EXTT3=
EXTT4=
EXTT5=
EXTT6=
EXTT7=
EXTT8=
EXTT9=
EXTT10=
EXTT11=
EXTT12=
PLAYORDER=
